<svg xmlns="http://www.w3.org/2000/svg" viewBox="0 0 1200 900" fill="none">
  <defs>
    <linearGradient id="bg" x1="80" x2="1080" y1="80" y2="860" gradientUnits="userSpaceOnUse">
      <stop stop-color="#141414"/>
      <stop offset="1" stop-color="#0C0C0C"/>
    </linearGradient>
    <linearGradient id="halo" x1="214" x2="912" y1="122" y2="630" gradientUnits="userSpaceOnUse">
      <stop stop-color="#8BFFC6" stop-opacity=".9"/>
      <stop offset=".52" stop-color="#B4C1EE" stop-opacity=".7"/>
      <stop offset="1" stop-color="#FFE551" stop-opacity=".88"/>
    </linearGradient>
  </defs>
  <rect width="1200" height="900" rx="72" fill="url(#bg)"/>
  <circle cx="248" cy="162" r="144" fill="#8BFFC6" fill-opacity=".13"/>
  <circle cx="1008" cy="188" r="166" fill="#FFAB96" fill-opacity=".12"/>
  <circle cx="856" cy="768" r="220" fill="#B4C1EE" fill-opacity=".13"/>
  <rect x="86" y="110" width="1028" height="88" rx="28" fill="white" fill-opacity=".05" stroke="white" stroke-opacity=".08"/>
  <rect x="120" y="142" width="182" height="24" rx="12" fill="#8BFFC6" fill-opacity=".82"/>
  <rect x="790" y="142" width="110" height="24" rx="12" fill="white" fill-opacity=".14"/>
  <rect x="918" y="142" width="148" height="24" rx="12" fill="white" fill-opacity=".08"/>
  <rect x="110" y="238" width="980" height="522" rx="38" fill="white" fill-opacity=".04" stroke="white" stroke-opacity=".08"/>
  <rect x="156" y="304" width="424" height="108" rx="36" fill="#8BFFC6" fill-opacity=".18"/>
  <rect x="188" y="334" width="188" height="16" rx="8" fill="#8BFFC6"/>
  <rect x="188" y="364" width="278" height="14" rx="7" fill="white" fill-opacity=".36"/>
  <rect x="188" y="388" width="228" height="14" rx="7" fill="white" fill-opacity=".24"/>
  <rect x="632" y="438" width="336" height="108" rx="36" fill="#B4C1EE" fill-opacity=".16"/>
  <rect x="666" y="470" width="122" height="16" rx="8" fill="#B4C1EE"/>
  <rect x="666" y="500" width="230" height="14" rx="7" fill="white" fill-opacity=".34"/>
  <rect x="666" y="524" width="184" height="14" rx="7" fill="white" fill-opacity=".22"/>
  <path d="M194 664c64-42 133-63 206-63 91 0 170 30 236 90" stroke="url(#halo)" stroke-linecap="round" stroke-width="18"/>
  <path d="M628 688c48-21 99-31 154-31 110 0 195 36 256 108" stroke="#FFAB96" stroke-linecap="round" stroke-opacity=".72" stroke-width="18"/>
</svg>
