<svg xmlns="http://www.w3.org/2000/svg" viewBox="0 0 1200 900" fill="none">
  <defs>
    <linearGradient id="bg" x1="96" x2="1098" y1="94" y2="836" gradientUnits="userSpaceOnUse">
      <stop stop-color="#151515"/>
      <stop offset="1" stop-color="#0C0C0C"/>
    </linearGradient>
    <linearGradient id="node" x1="232" x2="940" y1="182" y2="734" gradientUnits="userSpaceOnUse">
      <stop stop-color="#FFAB96"/>
      <stop offset=".5" stop-color="#FFE551"/>
      <stop offset="1" stop-color="#8BFFC6"/>
    </linearGradient>
  </defs>
  <rect width="1200" height="900" rx="72" fill="url(#bg)"/>
  <circle cx="220" cy="164" r="150" fill="#FFAB96" fill-opacity=".13"/>
  <circle cx="1016" cy="722" r="176" fill="#8BFFC6" fill-opacity=".12"/>
  <rect x="108" y="112" width="984" height="676" rx="42" fill="white" fill-opacity=".04" stroke="white" stroke-opacity=".08"/>
  <path d="M322 282h182m136 0h216m-248 150h182m-480 162h164m158 0h192" stroke="white" stroke-linecap="round" stroke-opacity=".16" stroke-width="20"/>
  <path d="M344 286c70 0 116 0 156 0 44 0 76 12 110 46l44 44c26 26 49 38 86 38h88" stroke="#FFAB96" stroke-linecap="round" stroke-opacity=".74" stroke-width="18"/>
  <path d="M344 286c76 0 124 18 172 66l104 104c26 26 55 40 96 40h116" stroke="#B4C1EE" stroke-linecap="round" stroke-opacity=".62" stroke-width="10"/>
  <path d="M332 594c80 0 136-24 194-82l96-96c38-38 84-58 138-58h112" stroke="#8BFFC6" stroke-linecap="round" stroke-opacity=".7" stroke-width="16"/>
  <g fill="url(#node)">
    <circle cx="302" cy="282" r="38"/>
    <circle cx="602" cy="438" r="38"/>
    <circle cx="894" cy="282" r="38"/>
    <circle cx="302" cy="594" r="38"/>
    <circle cx="628" cy="594" r="38"/>
    <circle cx="948" cy="594" r="38"/>
  </g>
  <circle cx="302" cy="282" r="22" fill="#0C0C0C"/>
  <circle cx="602" cy="438" r="22" fill="#0C0C0C"/>
  <circle cx="894" cy="282" r="22" fill="#0C0C0C"/>
  <circle cx="302" cy="594" r="22" fill="#0C0C0C"/>
  <circle cx="628" cy="594" r="22" fill="#0C0C0C"/>
  <circle cx="948" cy="594" r="22" fill="#0C0C0C"/>
</svg>
