<svg xmlns="http://www.w3.org/2000/svg" width="512" height="512" viewBox="0 0 512 512">
  <defs>
    <linearGradient id="dropzoneIconBg" x1="0" y1="0" x2="1" y2="1">
      <stop offset="0%" stop-color="#18352b" />
      <stop offset="58%" stop-color="#111315" />
      <stop offset="100%" stop-color="#2a1d1d" />
    </linearGradient>
  </defs>
  <rect x="24" y="24" width="464" height="464" rx="112" fill="url(#dropzoneIconBg)" />
  <g transform="translate(70 135) scale(0.39)">
    <path d="M593.875 603.222C580.068 625.59 550.792 629.767 531.914 612.061L448.005 533.364C429.128 515.659 429.419 484.301 448.622 466.995L533.188 390.781C627.203 306.052 751.039 273.026 868.906 301.249L932.534 316.484C934.805 317.027 936.91 318.17 938.655 319.807C947.862 328.442 942.707 344.583 930.452 345.492L929.092 345.592C812.697 354.223 705.919 421.7 640.214 528.148L593.875 603.222Z" fill="#ffffff" />
    <path d="M238.987 555.091C221.435 574.41 191.807 572.632 176.418 551.334L8.54861 319.014C-6.76193 297.825 -0.855068 267.153 21.0604 254.045L355.776 53.843C462.521 -10.0037 589.53 -16.7631 700.097 35.5185L942.907 150.331C946.665 152.108 949.945 154.854 952.449 158.319C965.808 176.806 951.499 203.222 929.729 200.263L785.081 180.595C669.58 164.89 553.319 209.104 470.546 300.213L238.987 555.091Z" fill="#ffffff" />
  </g>
</svg>
