<svg xmlns="http://www.w3.org/2000/svg" width="32" height="26" fill="none" viewBox="0 0 32 26">
  <path fill="#EA4B71" fill-rule="evenodd" d="M27.2 11.396a3.2 3.2 0 0 1-3.1-2.4h-3.667a1.6 1.6 0 0 0-1.578 1.336l-.132.79a3.2 3.2 0 0 1-1.04 1.874 3.2 3.2 0 0 1 1.04 1.874l.132.789a1.6 1.6 0 0 0 1.578 1.336h.468a3.201 3.201 0 1 1-.001 1.6h-.467a3.2 3.2 0 0 1-3.156-2.673l-.132-.79a1.6 1.6 0 0 0-1.578-1.336h-1.268a3.2 3.2 0 0 1-6.198 0H6.299a3.2 3.2 0 1 1 .001-1.6h1.8a3.2 3.2 0 0 1 6.2 0h1.267a1.6 1.6 0 0 0 1.578-1.338l.132-.79a3.2 3.2 0 0 1 3.156-2.672h3.668a3.201 3.201 0 0 1 6.299.8 3.2 3.2 0 0 1-3.2 3.2m0-1.6a1.6 1.6 0 1 0 0-3.2 1.6 1.6 0 0 0 0 3.2m-24 4.8a1.6 1.6 0 1 0 0-3.2 1.6 1.6 0 0 0 0 3.2m9.6-1.6a1.6 1.6 0 1 1-3.2 0 1.6 1.6 0 0 1 3.2 0m12.8 4.8a1.6 1.6 0 1 1-3.2 0 1.6 1.6 0 0 1 3.2 0" clip-rule="evenodd"/>
</svg>
